<svg id="svg" version="1.1" width="400" height="400" xmlns="http://www.w3.org/2000/svg" xmlns:xlink="http://www.w3.org/1999/xlink" style="display: block;"><g id="svgg"><path id="path0" d="M0.000 200.000 L 0.000 400.000 200.000 400.000 L 400.000 400.000 400.000 200.000 L 400.000 0.000 200.000 0.000 L 0.000 0.000 0.000 200.000 M214.400 40.783 C 221.525 41.558,227.873 42.437,228.800 42.777 C 229.350 42.979,231.060 43.346,232.600 43.593 C 234.140 43.839,236.300 44.293,237.400 44.602 C 238.500 44.911,241.380 45.719,243.800 46.399 C 246.220 47.078,249.100 47.883,250.200 48.187 C 251.300 48.492,252.740 49.023,253.400 49.368 C 254.060 49.713,254.843 49.996,255.140 49.998 C 255.436 49.999,256.246 50.258,256.940 50.573 C 257.633 50.888,260.041 51.889,262.290 52.799 C 266.657 54.564,278.581 60.504,279.631 61.438 C 279.979 61.747,280.453 62.000,280.686 62.000 C 281.739 62.000,297.723 73.014,298.520 74.288 C 298.696 74.570,299.061 74.800,299.332 74.800 C 299.602 74.800,300.448 75.390,301.212 76.112 C 301.975 76.833,304.130 78.768,306.000 80.412 C 310.740 84.577,315.285 89.112,319.398 93.778 C 321.327 95.965,323.420 98.305,324.050 98.978 C 324.681 99.650,325.197 100.322,325.198 100.471 C 325.199 100.621,325.430 100.981,325.711 101.271 C 326.636 102.229,331.833 109.352,333.392 111.800 C 334.233 113.120,335.389 114.889,335.961 115.731 C 339.633 121.140,346.671 135.644,350.260 145.200 C 352.478 151.105,354.946 159.917,356.365 167.000 C 356.762 168.980,357.286 171.320,357.529 172.200 C 357.773 173.080,358.174 175.690,358.422 178.000 C 358.670 180.310,359.025 183.460,359.211 185.000 C 359.666 188.756,359.653 211.880,359.194 215.400 C 358.993 216.940,358.636 219.987,358.400 222.171 C 358.165 224.355,357.784 226.875,357.553 227.771 C 357.323 228.667,356.887 230.840,356.585 232.600 C 356.283 234.360,355.771 236.700,355.447 237.800 C 355.122 238.900,354.563 240.880,354.204 242.200 C 353.117 246.200,351.559 251.284,350.772 253.400 C 348.036 260.761,346.755 263.775,343.767 269.889 C 341.915 273.677,340.400 276.885,340.400 277.016 C 340.400 277.148,339.858 278.044,339.194 279.008 C 338.531 279.972,337.856 281.085,337.694 281.483 C 336.993 283.204,327.516 297.017,326.225 298.200 C 325.985 298.420,325.455 299.121,325.047 299.758 C 324.460 300.675,315.329 310.876,313.102 313.102 C 310.876 315.329,300.675 324.460,299.758 325.047 C 299.121 325.455,298.420 325.985,298.200 326.225 C 297.017 327.516,283.204 336.993,281.483 337.694 C 281.085 337.856,279.972 338.531,279.008 339.194 C 278.044 339.858,277.148 340.400,277.016 340.400 C 276.885 340.400,273.677 341.915,269.889 343.767 C 263.775 346.755,260.761 348.036,253.400 350.772 C 251.284 351.559,246.200 353.117,242.200 354.204 C 240.880 354.563,238.900 355.122,237.800 355.447 C 236.700 355.771,234.360 356.283,232.600 356.585 C 230.840 356.887,228.667 357.323,227.771 357.553 C 226.875 357.784,224.355 358.165,222.171 358.400 C 219.987 358.636,216.940 358.993,215.400 359.194 C 211.880 359.653,188.756 359.666,185.000 359.211 C 183.460 359.025,180.310 358.670,178.000 358.422 C 175.690 358.174,173.080 357.773,172.200 357.529 C 171.320 357.286,168.980 356.762,167.000 356.365 C 159.998 354.962,151.313 352.536,145.200 350.275 C 136.299 346.984,121.072 339.587,115.731 335.961 C 114.889 335.389,113.120 334.233,111.800 333.392 C 109.352 331.833,102.229 326.636,101.271 325.711 C 100.981 325.430,100.621 325.199,100.471 325.198 C 100.322 325.197,99.650 324.681,98.978 324.050 C 98.305 323.420,95.965 321.327,93.778 319.398 C 89.112 315.285,84.577 310.740,80.412 306.000 C 78.768 304.130,76.833 301.975,76.112 301.212 C 75.390 300.448,74.800 299.602,74.800 299.332 C 74.800 299.061,74.570 298.696,74.288 298.520 C 73.014 297.723,62.000 281.739,62.000 280.686 C 62.000 280.453,61.747 279.979,61.438 279.631 C 60.504 278.581,54.564 266.657,52.799 262.290 C 51.889 260.041,50.888 257.633,50.573 256.940 C 50.258 256.246,49.999 255.436,49.998 255.140 C 49.996 254.843,49.713 254.060,49.368 253.400 C 49.023 252.740,48.492 251.300,48.187 250.200 C 47.883 249.100,47.078 246.220,46.399 243.800 C 45.719 241.380,44.911 238.500,44.602 237.400 C 44.293 236.300,43.839 234.140,43.593 232.600 C 43.346 231.060,42.979 229.350,42.777 228.800 C 42.437 227.873,41.558 221.525,40.783 214.400 C 40.324 210.181,40.336 189.688,40.800 185.600 C 41.875 176.123,43.955 163.979,44.761 162.473 C 45.003 162.022,45.200 161.226,45.200 160.704 C 45.200 160.182,45.537 158.685,45.948 157.378 C 46.360 156.070,47.099 153.650,47.590 152.000 C 48.545 148.791,48.971 147.606,51.788 140.316 C 53.977 134.653,60.158 121.943,61.640 120.058 C 62.058 119.527,62.400 118.872,62.400 118.604 C 62.400 118.335,63.030 117.290,63.800 116.282 C 64.570 115.273,65.200 114.266,65.200 114.045 C 65.200 113.823,65.650 113.156,66.200 112.562 C 66.750 111.969,67.200 111.303,67.200 111.083 C 67.200 110.863,67.792 109.944,68.514 109.041 C 69.237 108.139,70.117 106.942,70.470 106.382 C 71.043 105.472,73.051 102.864,76.293 98.819 C 80.819 93.171,87.445 86.272,93.435 80.971 C 99.982 75.177,100.167 75.018,100.851 74.600 C 101.444 74.238,103.501 72.702,108.863 68.619 C 109.888 67.838,110.896 67.200,111.105 67.200 C 111.313 67.200,111.969 66.750,112.562 66.200 C 113.156 65.650,113.823 65.200,114.045 65.200 C 114.266 65.200,115.273 64.570,116.282 63.800 C 117.290 63.030,118.335 62.400,118.604 62.400 C 118.872 62.400,119.527 62.058,120.058 61.640 C 121.943 60.158,134.653 53.977,140.316 51.788 C 147.606 48.971,148.791 48.545,152.000 47.590 C 153.650 47.099,156.070 46.360,157.378 45.948 C 158.685 45.537,160.182 45.200,160.704 45.200 C 161.226 45.200,162.022 45.003,162.473 44.761 C 163.906 43.994,175.734 41.935,185.000 40.840 C 188.668 40.406,210.546 40.364,214.400 40.783 M101.120 101.737 C 100.211 102.646,100.090 148.833,100.994 149.737 C 101.856 150.599,298.259 150.781,299.120 149.920 C 300.068 148.972,299.783 102.126,298.826 101.614 C 297.538 100.925,101.811 101.047,101.120 101.737 M101.500 175.474 C 100.843 175.647,100.800 177.156,100.800 200.022 L 100.800 224.385 101.700 224.603 C 102.195 224.723,113.220 224.771,126.200 224.711 L 149.800 224.600 149.800 200.000 L 149.800 175.400 126.000 175.345 C 112.910 175.314,101.885 175.373,101.500 175.474 M175.608 175.985 C 175.335 176.496,175.225 180.801,175.294 188.285 L 175.400 199.800 200.000 199.800 L 224.600 199.800 224.706 187.827 C 224.789 178.515,224.700 175.783,224.306 175.533 C 223.021 174.718,176.053 175.153,175.608 175.985 M250.500 175.460 C 249.973 175.678,249.734 234.366,250.252 236.300 L 250.493 237.200 274.398 237.200 C 296.146 237.200,298.352 237.140,298.851 236.538 C 299.479 235.781,299.690 176.357,299.067 175.733 C 298.712 175.378,251.344 175.111,250.500 175.460 M175.467 225.467 C 174.977 225.956,175.164 297.674,175.656 298.268 C 176.318 299.065,223.692 299.053,224.353 298.256 C 224.682 297.860,224.777 287.939,224.702 261.556 L 224.600 225.400 200.170 225.297 C 186.733 225.240,175.617 225.317,175.467 225.467 M106.800 250.000 L 101.000 250.200 100.897 274.253 L 100.794 298.305 101.697 298.547 C 102.194 298.680,113.172 298.792,126.092 298.795 L 149.585 298.800 149.803 297.900 C 149.923 297.405,149.971 286.470,149.911 273.600 L 149.800 250.200 131.200 250.000 C 120.970 249.890,109.990 249.890,106.800 250.000 M250.423 262.756 C 249.968 263.606,249.798 297.008,250.243 298.167 C 250.536 298.932,297.397 299.151,298.812 298.394 C 299.668 297.936,300.048 264.111,299.212 262.800 C 298.526 261.724,250.999 261.681,250.423 262.756 " stroke="none" fill="#ffffff" fill-rule="evenodd"></path><path id="path1" d="M190.000 41.656 C 188.570 41.840,184.880 42.181,181.800 42.414 C 178.720 42.647,175.750 43.076,175.200 43.367 C 174.650 43.657,172.784 44.018,171.054 44.168 C 169.324 44.319,167.524 44.681,167.054 44.974 C 166.584 45.266,165.190 45.615,163.956 45.750 C 162.722 45.884,161.063 46.265,160.269 46.597 C 159.475 46.929,158.415 47.206,157.913 47.214 C 157.411 47.221,156.280 47.575,155.400 48.000 C 154.520 48.425,153.350 48.785,152.800 48.800 C 152.250 48.815,151.080 49.175,150.200 49.600 C 149.320 50.025,148.260 50.379,147.844 50.386 C 147.099 50.400,144.821 51.342,141.921 52.837 C 141.107 53.257,140.055 53.600,139.582 53.600 C 139.110 53.600,138.246 53.857,137.662 54.170 C 137.078 54.484,134.260 55.854,131.400 57.214 C 128.540 58.574,125.930 59.841,125.600 60.028 C 125.270 60.215,123.891 61.005,122.535 61.784 C 121.179 62.563,119.874 63.200,119.635 63.200 C 119.396 63.200,119.199 63.335,119.197 63.500 C 119.195 63.792,118.735 64.112,114.731 66.600 C 111.120 68.844,103.673 74.056,102.973 74.830 C 102.590 75.253,102.043 75.600,101.758 75.600 C 101.473 75.600,101.094 75.861,100.915 76.181 C 100.736 76.500,99.602 77.541,98.395 78.494 C 92.339 83.276,83.276 92.339,78.494 98.395 C 77.541 99.602,76.500 100.736,76.181 100.915 C 75.861 101.094,75.600 101.473,75.600 101.758 C 75.600 102.043,75.253 102.590,74.830 102.973 C 74.034 103.693,68.717 111.306,66.600 114.755 C 65.329 116.827,63.957 118.866,63.609 119.202 C 63.494 119.313,62.783 120.572,62.029 122.001 C 61.276 123.430,60.421 124.837,60.129 125.128 C 59.838 125.419,59.600 125.895,59.600 126.185 C 59.600 126.475,58.585 128.757,57.344 131.256 C 56.104 133.755,54.754 136.481,54.344 137.312 C 53.935 138.144,53.600 139.188,53.600 139.633 C 53.600 140.078,53.257 141.107,52.837 141.921 C 51.342 144.821,50.400 147.099,50.386 147.844 C 50.379 148.260,50.025 149.320,49.600 150.200 C 49.175 151.080,48.815 152.250,48.800 152.800 C 48.785 153.350,48.425 154.520,48.000 155.400 C 47.575 156.280,47.221 157.411,47.214 157.913 C 47.206 158.415,46.929 159.475,46.597 160.269 C 46.265 161.063,45.884 162.722,45.750 163.956 C 45.615 165.190,45.275 166.570,44.994 167.023 C 44.713 167.475,44.353 169.275,44.194 171.023 C 44.034 172.770,43.664 174.650,43.371 175.200 C 43.077 175.751,42.652 178.716,42.423 181.800 C 42.195 184.880,41.838 188.750,41.629 190.400 C 41.133 194.322,41.134 206.234,41.632 209.800 C 41.846 211.340,42.226 215.296,42.474 218.592 C 42.739 222.105,43.124 224.781,43.403 225.060 C 43.665 225.322,44.000 226.976,44.146 228.735 C 44.293 230.495,44.679 232.444,45.004 233.067 C 45.329 233.690,45.596 234.789,45.598 235.510 C 45.599 236.230,45.960 237.844,46.400 239.096 C 46.840 240.348,47.200 241.703,47.200 242.108 C 47.200 242.513,47.538 243.599,47.951 244.522 C 48.364 245.445,48.825 247.055,48.975 248.100 C 49.126 249.145,49.410 250.000,49.606 250.000 C 49.803 250.000,50.070 250.675,50.200 251.500 C 50.331 252.325,50.683 253.540,50.984 254.200 C 51.285 254.860,51.996 256.424,52.565 257.675 C 53.134 258.927,53.600 260.249,53.600 260.614 C 53.600 260.978,53.853 261.754,54.162 262.338 C 54.471 262.922,55.177 264.390,55.730 265.600 C 58.110 270.807,58.922 272.428,59.251 272.631 C 59.443 272.750,59.600 273.184,59.600 273.595 C 59.600 274.006,59.872 274.614,60.203 274.946 C 60.535 275.278,61.447 276.776,62.230 278.275 C 63.013 279.774,64.406 282.097,65.327 283.438 C 66.247 284.779,67.360 286.482,67.800 287.224 C 68.821 288.945,69.281 289.612,72.200 293.611 C 73.520 295.420,74.912 297.372,75.294 297.950 C 75.676 298.527,76.219 299.180,76.500 299.400 C 76.782 299.620,77.631 300.610,78.388 301.600 C 82.002 306.328,93.102 317.429,98.595 321.809 C 99.693 322.684,100.896 323.670,101.270 324.000 C 102.992 325.521,110.163 330.679,112.394 332.000 C 113.322 332.550,115.188 333.758,116.541 334.685 C 117.893 335.612,120.260 337.024,121.800 337.822 C 123.340 338.620,124.744 339.527,124.920 339.837 C 125.096 340.147,125.490 340.400,125.795 340.400 C 126.101 340.400,128.297 341.369,130.675 342.553 C 136.973 345.688,138.574 346.400,139.319 346.400 C 139.685 346.400,141.484 347.112,143.317 347.983 C 145.150 348.854,147.400 349.686,148.317 349.833 C 149.234 349.980,150.190 350.347,150.441 350.650 C 150.693 350.952,151.422 351.200,152.062 351.200 C 152.702 351.200,153.895 351.491,154.713 351.847 C 156.176 352.484,159.063 353.260,163.000 354.075 C 164.100 354.303,165.755 354.750,166.679 355.069 C 167.602 355.389,169.806 355.796,171.577 355.975 C 173.348 356.153,175.022 356.486,175.298 356.714 C 175.574 356.943,178.410 357.328,181.600 357.571 C 184.790 357.815,188.120 358.186,189.000 358.397 C 191.547 359.008,208.453 358.889,212.400 358.232 C 214.270 357.921,217.780 357.546,220.199 357.400 C 222.619 357.253,224.821 356.949,225.093 356.723 C 225.365 356.497,227.004 356.154,228.735 355.960 C 230.466 355.767,232.533 355.336,233.328 355.004 C 234.124 354.672,235.326 354.400,236.000 354.400 C 236.674 354.400,237.823 354.150,238.554 353.845 C 239.284 353.540,240.653 353.160,241.597 353.001 C 242.540 352.841,244.052 352.375,244.956 351.964 C 245.860 351.554,247.145 351.214,247.811 351.209 C 248.477 351.204,249.377 350.953,249.811 350.651 C 250.245 350.349,251.230 349.976,252.000 349.823 C 252.770 349.669,254.120 349.205,255.000 348.792 C 258.712 347.049,260.284 346.400,260.800 346.400 C 261.427 346.400,263.229 345.587,269.325 342.553 C 271.703 341.369,273.849 340.400,274.093 340.400 C 274.337 340.400,274.867 340.101,275.271 339.736 C 276.093 338.991,277.309 338.253,278.800 337.590 C 279.350 337.346,280.970 336.370,282.400 335.422 C 283.830 334.473,285.568 333.360,286.263 332.949 C 288.111 331.854,291.906 329.247,294.200 327.497 C 295.300 326.658,296.619 325.663,297.131 325.286 C 297.643 324.909,298.813 323.953,299.731 323.161 C 300.649 322.370,301.705 321.559,302.077 321.358 C 304.338 320.141,320.141 304.338,321.358 302.077 C 321.559 301.705,322.370 300.649,323.161 299.731 C 323.953 298.813,324.909 297.643,325.286 297.131 C 325.663 296.619,326.658 295.300,327.497 294.200 C 329.247 291.906,331.854 288.111,332.949 286.263 C 333.360 285.568,334.473 283.830,335.422 282.400 C 336.370 280.970,337.346 279.350,337.590 278.800 C 338.253 277.309,338.991 276.093,339.736 275.271 C 340.101 274.867,340.400 274.338,340.400 274.094 C 340.400 273.850,341.372 271.705,342.561 269.326 C 345.505 263.433,346.400 261.445,346.400 260.800 C 346.400 260.284,347.049 258.712,348.792 255.000 C 349.205 254.120,349.669 252.770,349.823 252.000 C 349.976 251.230,350.349 250.245,350.651 249.811 C 350.953 249.377,351.204 248.477,351.209 247.811 C 351.214 247.145,351.554 245.860,351.964 244.956 C 352.375 244.052,352.841 242.540,353.001 241.597 C 353.160 240.653,353.540 239.284,353.845 238.554 C 354.150 237.823,354.400 236.674,354.400 236.000 C 354.400 235.326,354.672 234.124,355.004 233.328 C 355.336 232.533,355.767 230.466,355.960 228.735 C 356.154 227.004,356.497 225.365,356.723 225.093 C 356.949 224.821,357.253 222.619,357.400 220.199 C 357.546 217.780,357.921 214.270,358.232 212.400 C 358.889 208.453,359.008 191.547,358.397 189.000 C 358.186 188.120,357.815 184.795,357.571 181.612 C 357.328 178.429,356.900 175.369,356.620 174.812 C 356.340 174.255,356.005 172.540,355.876 171.000 C 355.746 169.460,355.380 167.480,355.062 166.600 C 354.744 165.720,354.299 164.100,354.073 163.000 C 353.270 159.099,352.486 156.181,351.847 154.713 C 351.491 153.895,351.200 152.702,351.200 152.062 C 351.200 151.422,350.952 150.693,350.650 150.441 C 350.347 150.190,349.980 149.234,349.833 148.317 C 349.686 147.400,348.854 145.150,347.983 143.317 C 347.112 141.484,346.400 139.685,346.400 139.319 C 346.400 138.574,345.688 136.973,342.553 130.675 C 341.369 128.297,340.400 126.101,340.400 125.795 C 340.400 125.490,340.147 125.096,339.837 124.920 C 339.527 124.744,338.620 123.340,337.822 121.800 C 337.024 120.260,335.612 117.893,334.685 116.541 C 333.758 115.188,332.550 113.322,332.000 112.394 C 330.679 110.163,325.521 102.992,324.000 101.270 C 323.670 100.896,322.684 99.693,321.809 98.595 C 317.429 93.102,306.328 82.002,301.600 78.388 C 300.610 77.631,299.620 76.782,299.400 76.500 C 299.180 76.219,298.527 75.676,297.950 75.294 C 297.372 74.912,295.420 73.520,293.611 72.200 C 289.612 69.281,288.945 68.821,287.224 67.800 C 286.482 67.360,284.779 66.247,283.438 65.327 C 282.097 64.406,279.774 63.013,278.275 62.230 C 276.776 61.447,275.278 60.535,274.946 60.203 C 274.614 59.872,274.006 59.600,273.595 59.600 C 273.184 59.600,272.750 59.443,272.631 59.251 C 272.428 58.922,270.807 58.110,265.600 55.730 C 264.390 55.177,262.922 54.471,262.338 54.162 C 261.754 53.853,260.978 53.600,260.614 53.600 C 260.249 53.600,258.927 53.134,257.675 52.565 C 256.424 51.996,254.860 51.285,254.200 50.984 C 253.540 50.683,252.325 50.331,251.500 50.200 C 250.675 50.070,250.000 49.803,250.000 49.606 C 250.000 49.410,249.145 49.126,248.100 48.975 C 247.055 48.825,245.445 48.364,244.522 47.951 C 243.599 47.538,242.513 47.200,242.108 47.200 C 241.703 47.200,240.348 46.840,239.096 46.400 C 237.844 45.960,236.230 45.599,235.510 45.598 C 234.789 45.596,233.690 45.329,233.067 45.004 C 232.444 44.679,230.495 44.293,228.735 44.146 C 226.976 44.000,225.322 43.665,225.060 43.403 C 224.781 43.124,222.100 42.738,218.592 42.471 C 215.296 42.220,211.250 41.843,209.600 41.632 C 206.002 41.173,193.642 41.188,190.000 41.656 M300.008 100.400 C 300.609 101.349,300.523 150.917,299.920 151.520 C 298.962 152.478,100.528 152.186,100.014 151.226 C 99.571 150.399,99.411 102.544,99.846 100.923 C 99.996 100.366,100.468 99.986,101.141 99.883 C 104.762 99.328,299.651 99.834,300.008 100.400 M150.426 174.814 C 151.639 175.463,151.639 224.537,150.426 225.186 C 148.777 226.069,100.495 225.724,100.014 224.826 C 99.442 223.758,99.442 176.242,100.014 175.174 C 100.495 174.276,148.777 173.931,150.426 174.814 M225.120 174.880 C 225.746 175.506,225.807 199.265,225.186 200.426 C 224.571 201.575,175.827 201.646,174.957 200.500 C 174.224 199.535,174.153 175.607,174.880 174.880 C 175.573 174.187,224.427 174.187,225.120 174.880 M299.920 174.880 C 300.615 175.575,300.615 236.825,299.920 237.520 C 299.286 238.154,250.753 238.217,249.574 237.586 C 248.457 236.988,248.349 176.362,249.462 175.131 C 250.294 174.213,299.010 173.970,299.920 174.880 M225.043 224.300 C 225.978 225.532,225.838 299.527,224.900 299.913 C 223.356 300.547,175.200 300.246,174.792 299.600 C 174.066 298.452,174.290 225.535,175.023 224.489 L 175.645 223.600 200.079 223.600 C 222.879 223.600,224.547 223.647,225.043 224.300 M150.731 249.700 C 151.510 250.971,151.522 251.536,151.303 275.333 L 151.078 299.666 150.089 300.042 C 148.450 300.665,100.959 300.320,100.320 299.680 C 99.659 299.020,99.336 251.145,99.981 249.450 L 100.380 248.400 125.157 248.400 L 149.935 248.400 150.731 249.700 M300.207 261.700 C 300.561 263.130,300.236 299.497,299.867 299.867 C 299.371 300.363,251.147 300.512,249.857 300.022 L 248.800 299.620 248.800 281.196 C 248.800 264.909,248.875 262.657,249.446 261.786 L 250.092 260.800 275.038 260.800 L 299.985 260.800 300.207 261.700 " stroke="none" fill="#f86b01" fill-rule="evenodd"></path><path id="path2" d="M185.000 40.840 C 175.734 41.935,163.906 43.994,162.473 44.761 C 162.022 45.003,161.226 45.200,160.704 45.200 C 160.182 45.200,158.685 45.537,157.378 45.948 C 156.070 46.360,153.650 47.099,152.000 47.590 C 148.791 48.545,147.606 48.971,140.316 51.788 C 134.653 53.977,121.943 60.158,120.058 61.640 C 119.527 62.058,118.872 62.400,118.604 62.400 C 118.335 62.400,117.290 63.030,116.282 63.800 C 115.273 64.570,114.266 65.200,114.045 65.200 C 113.823 65.200,113.156 65.650,112.562 66.200 C 111.969 66.750,111.313 67.200,111.105 67.200 C 110.896 67.200,109.888 67.838,108.863 68.619 C 103.501 72.702,101.444 74.238,100.851 74.600 C 100.167 75.018,99.982 75.177,93.435 80.971 C 87.445 86.272,80.819 93.171,76.293 98.819 C 73.051 102.864,71.043 105.472,70.470 106.382 C 70.117 106.942,69.237 108.139,68.514 109.041 C 67.792 109.944,67.200 110.863,67.200 111.083 C 67.200 111.303,66.750 111.969,66.200 112.562 C 65.650 113.156,65.200 113.823,65.200 114.045 C 65.200 114.266,64.570 115.273,63.800 116.282 C 63.030 117.290,62.400 118.335,62.400 118.604 C 62.400 118.872,62.058 119.527,61.640 120.058 C 60.158 121.943,53.977 134.653,51.788 140.316 C 48.971 147.606,48.545 148.791,47.590 152.000 C 47.099 153.650,46.360 156.070,45.948 157.378 C 45.537 158.685,45.200 160.182,45.200 160.704 C 45.200 161.226,45.003 162.022,44.761 162.473 C 43.955 163.979,41.875 176.123,40.800 185.600 C 40.336 189.688,40.324 210.181,40.783 214.400 C 41.558 221.525,42.437 227.873,42.777 228.800 C 42.979 229.350,43.346 231.060,43.593 232.600 C 43.839 234.140,44.293 236.300,44.602 237.400 C 44.911 238.500,45.719 241.380,46.399 243.800 C 47.078 246.220,47.883 249.100,48.187 250.200 C 48.492 251.300,49.023 252.740,49.368 253.400 C 49.713 254.060,49.996 254.843,49.998 255.140 C 49.999 255.436,50.258 256.246,50.573 256.940 C 50.888 257.633,51.889 260.041,52.799 262.290 C 54.564 266.657,60.504 278.581,61.438 279.631 C 61.747 279.979,62.000 280.453,62.000 280.686 C 62.000 281.739,73.014 297.723,74.288 298.520 C 74.570 298.696,74.800 299.061,74.800 299.332 C 74.800 299.602,75.390 300.448,76.112 301.212 C 76.833 301.975,78.768 304.130,80.412 306.000 C 84.577 310.740,89.112 315.285,93.778 319.398 C 95.965 321.327,98.305 323.420,98.978 324.050 C 99.650 324.681,100.322 325.197,100.471 325.198 C 100.621 325.199,100.981 325.430,101.271 325.711 C 102.229 326.636,109.352 331.833,111.800 333.392 C 113.120 334.233,114.889 335.389,115.731 335.961 C 121.072 339.587,136.299 346.984,145.200 350.275 C 151.313 352.536,159.998 354.962,167.000 356.365 C 168.980 356.762,171.320 357.286,172.200 357.529 C 173.080 357.773,175.690 358.174,178.000 358.422 C 180.310 358.670,183.460 359.025,185.000 359.211 C 188.756 359.666,211.880 359.653,215.400 359.194 C 216.940 358.993,219.987 358.636,222.171 358.400 C 224.355 358.165,226.875 357.784,227.771 357.553 C 228.667 357.323,230.840 356.887,232.600 356.585 C 234.360 356.283,236.700 355.771,237.800 355.447 C 238.900 355.122,240.880 354.563,242.200 354.204 C 246.200 353.117,251.284 351.559,253.400 350.772 C 260.761 348.036,263.775 346.755,269.889 343.767 C 273.677 341.915,276.885 340.400,277.016 340.400 C 277.148 340.400,278.044 339.858,279.008 339.194 C 279.972 338.531,281.085 337.856,281.483 337.694 C 283.204 336.993,297.017 327.516,298.200 326.225 C 298.420 325.985,299.121 325.455,299.758 325.047 C 300.675 324.460,310.876 315.329,313.102 313.102 C 315.329 310.876,324.460 300.675,325.047 299.758 C 325.455 299.121,325.985 298.420,326.225 298.200 C 327.516 297.017,336.993 283.204,337.694 281.483 C 337.856 281.085,338.531 279.972,339.194 279.008 C 339.858 278.044,340.400 277.148,340.400 277.016 C 340.400 276.885,341.915 273.677,343.767 269.889 C 346.755 263.775,348.036 260.761,350.772 253.400 C 351.559 251.284,353.117 246.200,354.204 242.200 C 354.563 240.880,355.122 238.900,355.447 237.800 C 355.771 236.700,356.283 234.360,356.585 232.600 C 356.887 230.840,357.323 228.667,357.553 227.771 C 357.784 226.875,358.165 224.355,358.400 222.171 C 358.636 219.987,358.993 216.940,359.194 215.400 C 359.653 211.880,359.666 188.756,359.211 185.000 C 359.025 183.460,358.670 180.310,358.422 178.000 C 358.174 175.690,357.773 173.080,357.529 172.200 C 357.286 171.320,356.762 168.980,356.365 167.000 C 354.946 159.917,352.478 151.105,350.260 145.200 C 346.671 135.644,339.633 121.140,335.961 115.731 C 335.389 114.889,334.233 113.120,333.392 111.800 C 331.833 109.352,326.636 102.229,325.711 101.271 C 325.430 100.981,325.199 100.621,325.198 100.471 C 325.197 100.322,324.681 99.650,324.050 98.978 C 323.420 98.305,321.327 95.965,319.398 93.778 C 315.285 89.112,310.740 84.577,306.000 80.412 C 304.130 78.768,301.975 76.833,301.212 76.112 C 300.448 75.390,299.602 74.800,299.332 74.800 C 299.061 74.800,298.696 74.570,298.520 74.288 C 297.723 73.014,281.739 62.000,280.686 62.000 C 280.453 62.000,279.979 61.747,279.631 61.438 C 278.581 60.504,266.657 54.564,262.290 52.799 C 260.041 51.889,257.633 50.888,256.940 50.573 C 256.246 50.258,255.436 49.999,255.140 49.998 C 254.843 49.996,254.060 49.713,253.400 49.368 C 252.740 49.023,251.300 48.492,250.200 48.187 C 249.100 47.883,246.220 47.078,243.800 46.399 C 241.380 45.719,238.500 44.911,237.400 44.602 C 236.300 44.293,234.140 43.839,232.600 43.593 C 231.060 43.346,229.350 42.979,228.800 42.777 C 227.873 42.437,221.525 41.558,214.400 40.783 C 210.546 40.364,188.668 40.406,185.000 40.840 M209.600 41.632 C 211.250 41.843,215.296 42.220,218.592 42.471 C 222.100 42.738,224.781 43.124,225.060 43.403 C 225.322 43.665,226.976 44.000,228.735 44.146 C 230.495 44.293,232.444 44.679,233.067 45.004 C 233.690 45.329,234.789 45.596,235.510 45.598 C 236.230 45.599,237.844 45.960,239.096 46.400 C 240.348 46.840,241.703 47.200,242.108 47.200 C 242.513 47.200,243.599 47.538,244.522 47.951 C 245.445 48.364,247.055 48.825,248.100 48.975 C 249.145 49.126,250.000 49.410,250.000 49.606 C 250.000 49.803,250.675 50.070,251.500 50.200 C 252.325 50.331,253.540 50.683,254.200 50.984 C 254.860 51.285,256.424 51.996,257.675 52.565 C 258.927 53.134,260.249 53.600,260.614 53.600 C 260.978 53.600,261.754 53.853,262.338 54.162 C 262.922 54.471,264.390 55.177,265.600 55.730 C 270.807 58.110,272.428 58.922,272.631 59.251 C 272.750 59.443,273.184 59.600,273.595 59.600 C 274.006 59.600,274.614 59.872,274.946 60.203 C 275.278 60.535,276.776 61.447,278.275 62.230 C 279.774 63.013,282.097 64.406,283.438 65.327 C 284.779 66.247,286.482 67.360,287.224 67.800 C 288.945 68.821,289.612 69.281,293.611 72.200 C 295.420 73.520,297.372 74.912,297.950 75.294 C 298.527 75.676,299.180 76.219,299.400 76.500 C 299.620 76.782,300.610 77.631,301.600 78.388 C 306.328 82.002,317.429 93.102,321.809 98.595 C 322.684 99.693,323.670 100.896,324.000 101.270 C 325.521 102.992,330.679 110.163,332.000 112.394 C 332.550 113.322,333.758 115.188,334.685 116.541 C 335.612 117.893,337.024 120.260,337.822 121.800 C 338.620 123.340,339.527 124.744,339.837 124.920 C 340.147 125.096,340.400 125.490,340.400 125.795 C 340.400 126.101,341.369 128.297,342.553 130.675 C 345.688 136.973,346.400 138.574,346.400 139.319 C 346.400 139.685,347.112 141.484,347.983 143.317 C 348.854 145.150,349.686 147.400,349.833 148.317 C 349.980 149.234,350.347 150.190,350.650 150.441 C 350.952 150.693,351.200 151.422,351.200 152.062 C 351.200 152.702,351.491 153.895,351.847 154.713 C 352.486 156.181,353.270 159.099,354.073 163.000 C 354.299 164.100,354.744 165.720,355.062 166.600 C 355.380 167.480,355.746 169.460,355.876 171.000 C 356.005 172.540,356.340 174.255,356.620 174.812 C 356.900 175.369,357.328 178.429,357.571 181.612 C 357.815 184.795,358.186 188.120,358.397 189.000 C 359.008 191.547,358.889 208.453,358.232 212.400 C 357.921 214.270,357.546 217.780,357.400 220.199 C 357.253 222.619,356.949 224.821,356.723 225.093 C 356.497 225.365,356.154 227.004,355.960 228.735 C 355.767 230.466,355.336 232.533,355.004 233.328 C 354.672 234.124,354.400 235.326,354.400 236.000 C 354.400 236.674,354.150 237.823,353.845 238.554 C 353.540 239.284,353.160 240.653,353.001 241.597 C 352.841 242.540,352.375 244.052,351.964 244.956 C 351.554 245.860,351.214 247.145,351.209 247.811 C 351.204 248.477,350.953 249.377,350.651 249.811 C 350.349 250.245,349.976 251.230,349.823 252.000 C 349.669 252.770,349.205 254.120,348.792 255.000 C 347.049 258.712,346.400 260.284,346.400 260.800 C 346.400 261.445,345.505 263.433,342.561 269.326 C 341.372 271.705,340.400 273.850,340.400 274.094 C 340.400 274.338,340.101 274.867,339.736 275.271 C 338.991 276.093,338.253 277.309,337.590 278.800 C 337.346 279.350,336.370 280.970,335.422 282.400 C 334.473 283.830,333.360 285.568,332.949 286.263 C 331.854 288.111,329.247 291.906,327.497 294.200 C 326.658 295.300,325.663 296.619,325.286 297.131 C 324.909 297.643,323.953 298.813,323.161 299.731 C 322.370 300.649,321.559 301.705,321.358 302.077 C 320.141 304.338,304.338 320.141,302.077 321.358 C 301.705 321.559,300.649 322.370,299.731 323.161 C 298.813 323.953,297.643 324.909,297.131 325.286 C 296.619 325.663,295.300 326.658,294.200 327.497 C 291.906 329.247,288.111 331.854,286.263 332.949 C 285.568 333.360,283.830 334.473,282.400 335.422 C 280.970 336.370,279.350 337.346,278.800 337.590 C 277.309 338.253,276.093 338.991,275.271 339.736 C 274.867 340.101,274.337 340.400,274.093 340.400 C 273.849 340.400,271.703 341.369,269.325 342.553 C 263.229 345.587,261.427 346.400,260.800 346.400 C 260.284 346.400,258.712 347.049,255.000 348.792 C 254.120 349.205,252.770 349.669,252.000 349.823 C 251.230 349.976,250.245 350.349,249.811 350.651 C 249.377 350.953,248.477 351.204,247.811 351.209 C 247.145 351.214,245.860 351.554,244.956 351.964 C 244.052 352.375,242.540 352.841,241.597 353.001 C 240.653 353.160,239.284 353.540,238.554 353.845 C 237.823 354.150,236.674 354.400,236.000 354.400 C 235.326 354.400,234.124 354.672,233.328 355.004 C 232.533 355.336,230.466 355.767,228.735 355.960 C 227.004 356.154,225.365 356.497,225.093 356.723 C 224.821 356.949,222.619 357.253,220.199 357.400 C 217.780 357.546,214.270 357.921,212.400 358.232 C 208.453 358.889,191.547 359.008,189.000 358.397 C 188.120 358.186,184.790 357.815,181.600 357.571 C 178.410 357.328,175.574 356.943,175.298 356.714 C 175.022 356.486,173.348 356.153,171.577 355.975 C 169.806 355.796,167.602 355.389,166.679 355.069 C 165.755 354.750,164.100 354.303,163.000 354.075 C 159.063 353.260,156.176 352.484,154.713 351.847 C 153.895 351.491,152.702 351.200,152.062 351.200 C 151.422 351.200,150.693 350.952,150.441 350.650 C 150.190 350.347,149.234 349.980,148.317 349.833 C 147.400 349.686,145.150 348.854,143.317 347.983 C 141.484 347.112,139.685 346.400,139.319 346.400 C 138.574 346.400,136.973 345.688,130.675 342.553 C 128.297 341.369,126.101 340.400,125.795 340.400 C 125.490 340.400,125.096 340.147,124.920 339.837 C 124.744 339.527,123.340 338.620,121.800 337.822 C 120.260 337.024,117.893 335.612,116.541 334.685 C 115.188 333.758,113.322 332.550,112.394 332.000 C 110.163 330.679,102.992 325.521,101.270 324.000 C 100.896 323.670,99.693 322.684,98.595 321.809 C 93.102 317.429,82.002 306.328,78.388 301.600 C 77.631 300.610,76.782 299.620,76.500 299.400 C 76.219 299.180,75.676 298.527,75.294 297.950 C 74.912 297.372,73.520 295.420,72.200 293.611 C 69.281 289.612,68.821 288.945,67.800 287.224 C 67.360 286.482,66.247 284.779,65.327 283.438 C 64.406 282.097,63.013 279.774,62.230 278.275 C 61.447 276.776,60.535 275.278,60.203 274.946 C 59.872 274.614,59.600 274.006,59.600 273.595 C 59.600 273.184,59.443 272.750,59.251 272.631 C 58.922 272.428,58.110 270.807,55.730 265.600 C 55.177 264.390,54.471 262.922,54.162 262.338 C 53.853 261.754,53.600 260.978,53.600 260.614 C 53.600 260.249,53.134 258.927,52.565 257.675 C 51.996 256.424,51.285 254.860,50.984 254.200 C 50.683 253.540,50.331 252.325,50.200 251.500 C 50.070 250.675,49.803 250.000,49.606 250.000 C 49.410 250.000,49.126 249.145,48.975 248.100 C 48.825 247.055,48.364 245.445,47.951 244.522 C 47.538 243.599,47.200 242.513,47.200 242.108 C 47.200 241.703,46.840 240.348,46.400 239.096 C 45.960 237.844,45.599 236.230,45.598 235.510 C 45.596 234.789,45.329 233.690,45.004 233.067 C 44.679 232.444,44.293 230.495,44.146 228.735 C 44.000 226.976,43.665 225.322,43.403 225.060 C 43.124 224.781,42.739 222.105,42.474 218.592 C 42.226 215.296,41.846 211.340,41.632 209.800 C 41.134 206.234,41.133 194.322,41.629 190.400 C 41.838 188.750,42.195 184.880,42.423 181.800 C 42.652 178.716,43.077 175.751,43.371 175.200 C 43.664 174.650,44.034 172.770,44.194 171.023 C 44.353 169.275,44.713 167.475,44.994 167.023 C 45.275 166.570,45.615 165.190,45.750 163.956 C 45.884 162.722,46.265 161.063,46.597 160.269 C 46.929 159.475,47.206 158.415,47.214 157.913 C 47.221 157.411,47.575 156.280,48.000 155.400 C 48.425 154.520,48.785 153.350,48.800 152.800 C 48.815 152.250,49.175 151.080,49.600 150.200 C 50.025 149.320,50.379 148.260,50.386 147.844 C 50.400 147.099,51.342 144.821,52.837 141.921 C 53.257 141.107,53.600 140.078,53.600 139.633 C 53.600 139.188,53.935 138.144,54.344 137.312 C 54.754 136.481,56.104 133.755,57.344 131.256 C 58.585 128.757,59.600 126.475,59.600 126.185 C 59.600 125.895,59.838 125.419,60.129 125.128 C 60.421 124.837,61.276 123.430,62.029 122.001 C 62.783 120.572,63.494 119.313,63.609 119.202 C 63.957 118.866,65.329 116.827,66.600 114.755 C 68.717 111.306,74.034 103.693,74.830 102.973 C 75.253 102.590,75.600 102.043,75.600 101.758 C 75.600 101.473,75.861 101.094,76.181 100.915 C 76.500 100.736,77.541 99.602,78.494 98.395 C 83.276 92.339,92.339 83.276,98.395 78.494 C 99.602 77.541,100.736 76.500,100.915 76.181 C 101.094 75.861,101.473 75.600,101.758 75.600 C 102.043 75.600,102.590 75.253,102.973 74.830 C 103.673 74.056,111.120 68.844,114.731 66.600 C 118.735 64.112,119.195 63.792,119.197 63.500 C 119.199 63.335,119.396 63.200,119.635 63.200 C 119.874 63.200,121.179 62.563,122.535 61.784 C 123.891 61.005,125.270 60.215,125.600 60.028 C 125.930 59.841,128.540 58.574,131.400 57.214 C 134.260 55.854,137.078 54.484,137.662 54.170 C 138.246 53.857,139.110 53.600,139.582 53.600 C 140.055 53.600,141.107 53.257,141.921 52.837 C 144.821 51.342,147.099 50.400,147.844 50.386 C 148.260 50.379,149.320 50.025,150.200 49.600 C 151.080 49.175,152.250 48.815,152.800 48.800 C 153.350 48.785,154.520 48.425,155.400 48.000 C 156.280 47.575,157.411 47.221,157.913 47.214 C 158.415 47.206,159.475 46.929,160.269 46.597 C 161.063 46.265,162.722 45.884,163.956 45.750 C 165.190 45.615,166.584 45.266,167.054 44.974 C 167.524 44.681,169.324 44.319,171.054 44.168 C 172.784 44.018,174.650 43.657,175.200 43.367 C 175.750 43.076,178.720 42.647,181.800 42.414 C 184.880 42.181,188.570 41.840,190.000 41.656 C 193.642 41.188,206.002 41.173,209.600 41.632 M101.141 99.883 C 100.468 99.986,99.996 100.366,99.846 100.923 C 99.411 102.544,99.571 150.399,100.014 151.226 C 100.528 152.186,298.962 152.478,299.920 151.520 C 300.523 150.917,300.609 101.349,300.008 100.400 C 299.651 99.834,104.762 99.328,101.141 99.883 M298.826 101.614 C 299.783 102.126,300.068 148.972,299.120 149.920 C 298.259 150.781,101.856 150.599,100.994 149.737 C 100.090 148.833,100.211 102.646,101.120 101.737 C 101.811 101.047,297.538 100.925,298.826 101.614 M100.014 175.174 C 99.442 176.242,99.442 223.758,100.014 224.826 C 100.495 225.724,148.777 226.069,150.426 225.186 C 151.639 224.537,151.639 175.463,150.426 174.814 C 148.777 173.931,100.495 174.276,100.014 175.174 M174.880 174.880 C 174.153 175.607,174.224 199.535,174.957 200.500 C 175.827 201.646,224.571 201.575,225.186 200.426 C 225.807 199.265,225.746 175.506,225.120 174.880 C 224.427 174.187,175.573 174.187,174.880 174.880 M249.462 175.131 C 248.349 176.362,248.457 236.988,249.574 237.586 C 250.753 238.217,299.286 238.154,299.920 237.520 C 300.615 236.825,300.615 175.575,299.920 174.880 C 299.010 173.970,250.294 174.213,249.462 175.131 M149.800 200.000 L 149.800 224.600 126.200 224.711 C 113.220 224.771,102.195 224.723,101.700 224.603 L 100.800 224.385 100.800 200.022 C 100.800 177.156,100.843 175.647,101.500 175.474 C 101.885 175.373,112.910 175.314,126.000 175.345 L 149.800 175.400 149.800 200.000 M224.306 175.533 C 224.700 175.783,224.789 178.515,224.706 187.827 L 224.600 199.800 200.000 199.800 L 175.400 199.800 175.294 188.285 C 175.225 180.801,175.335 176.496,175.608 175.985 C 176.053 175.153,223.021 174.718,224.306 175.533 M299.067 175.733 C 299.690 176.357,299.479 235.781,298.851 236.538 C 298.352 237.140,296.146 237.200,274.398 237.200 L 250.493 237.200 250.252 236.300 C 249.734 234.366,249.973 175.678,250.500 175.460 C 251.344 175.111,298.712 175.378,299.067 175.733 M175.023 224.489 C 174.290 225.535,174.066 298.452,174.792 299.600 C 175.200 300.246,223.356 300.547,224.900 299.913 C 225.838 299.527,225.978 225.532,225.043 224.300 C 224.547 223.647,222.879 223.600,200.079 223.600 L 175.645 223.600 175.023 224.489 M224.702 261.556 C 224.777 287.939,224.682 297.860,224.353 298.256 C 223.692 299.053,176.318 299.065,175.656 298.268 C 175.164 297.674,174.977 225.956,175.467 225.467 C 175.617 225.317,186.733 225.240,200.170 225.297 L 224.600 225.400 224.702 261.556 M99.981 249.450 C 99.336 251.145,99.659 299.020,100.320 299.680 C 100.959 300.320,148.450 300.665,150.089 300.042 L 151.078 299.666 151.303 275.333 C 151.522 251.536,151.510 250.971,150.731 249.700 L 149.935 248.400 125.157 248.400 L 100.380 248.400 99.981 249.450 M149.911 273.600 C 149.971 286.470,149.923 297.405,149.803 297.900 L 149.585 298.800 126.092 298.795 C 113.172 298.792,102.194 298.680,101.697 298.547 L 100.794 298.305 100.897 274.253 L 101.000 250.200 106.800 250.000 C 109.990 249.890,120.970 249.890,131.200 250.000 L 149.800 250.200 149.911 273.600 M249.446 261.786 C 248.875 262.657,248.800 264.909,248.800 281.196 L 248.800 299.620 249.857 300.022 C 251.147 300.512,299.371 300.363,299.867 299.867 C 300.236 299.497,300.561 263.130,300.207 261.700 L 299.985 260.800 275.038 260.800 L 250.092 260.800 249.446 261.786 M299.212 262.800 C 300.048 264.111,299.668 297.936,298.812 298.394 C 297.397 299.151,250.536 298.932,250.243 298.167 C 249.798 297.008,249.968 263.606,250.423 262.756 C 250.999 261.681,298.526 261.724,299.212 262.800 " stroke="none" fill="#fba260" fill-rule="evenodd"></path></g></svg>